<?xml version="1.0" encoding="UTF-8"?>
<svg id="Logos_1:1_" data-name="Logos (1:1)" xmlns="http://www.w3.org/2000/svg" viewBox="0 0 216 72">
  <defs>
    <style>
      .cls-1 {
        fill: #0ea34a;
      }

      .cls-2 {
        fill: #ed6823;
      }

      .cls-3 {
        fill: #0076a6;
      }

      .cls-4 {
        fill: #263b80;
        font-family: AvenirLTStd-Medium, 'Avenir LT Std';
        font-size: 11.5px;
        font-weight: 500;
      }

      .cls-5 {
        fill: #d24398;
      }

      .cls-6 {
        fill: #dfc722;
      }
    </style>
  </defs>
  <g>
    <path class="cls-5" d="m33.73,8.78c-11.72,0-20.02,7.97-20.02,20.62,0,8.21,4.1,15.47,12.1,18.06.17-1.97-.28-4.01-.95-5.91-1.62-1.02-8.23-5.52-8.19-10.59.02-2.36,1.46-4.47,4.29-6.28,1.35-3.5,4.08-6.57,7.09-8.83h0c1.02-2.54,2.56-4.21,4.85-4.21,5.06,0,6.96,7.2,7.08,16.82,3.46,2.59,7.7,4.57,12.05,5.04.4-1.75.61-3.64.61-5.64,0-10.28-6.43-19.08-18.91-19.08Zm11.73,25.57c-1.93-.66-3.76-1.46-5.52-2.48-.28,6.92-1.86,13.76-6.49,13.76-5.22,0-7.09-7.7-7.09-17.82,0-2.57.15-5.23.55-7.63-3.33,2.78-5.79,6.81-5.03,11.21.39,2.96,2.4,5.36,3.58,8.06,1.2,2.7,2.17,5.51,2.21,8.51,1.53.34,3.18.52,4.96.52,9.09,0,16.13-4.8,18.82-12.88-1.96-.12-3.97-.53-5.99-1.25Zm-25.14-2.67c-.39-1.87-.3-3.69.14-5.42-1.84,1.42-2.78,3-2.79,4.7-.03,3.71,4.19,7.26,6.53,8.93-1.21-2.76-3.36-5.13-3.88-8.21Z"/>
    <path class="cls-3" d="m93.76,44.24c-.93.47-1.9.87-2.93,1.2-8.3,2.61-12.89-4.26-10.21-11.83,1.03-2.86,2.36-8.45-1.81-8-1.24,2.21-3.41,3.41-6.31,3.41h-1.21v-3.11c-.57.14-1.19.26-1.87.33-2.68,3.95-6.19,6.76-10.17,8.23v7.31c0,2.8-.22,3.3-3.8,3.68v2.47h19.64v-2.47c-3.58-.38-3.8-.88-3.8-3.68v-9.79h1.65l5.67,9.9c1.64,2.86,3.07,4.83,4.61,6.04h13.59v-2.47c-1.34-.09-2.2-.42-3.05-1.22Zm-2.45-3.23l-7.32-10.78c4.02-1.43,7.87-4.46,7.87-9.85,0-6.93-6.16-11.05-15.01-11.05h-21.4v2.47c3.58.39,3.8.88,3.8,3.69v12.05c1.67-.86,4.55-1.85,9.29-2.21,1.05-.08,1.96-.24,2.75-.46v-12.63h1.16c4.78,0,7.53,2.97,7.53,8.2,0,1.67-.26,3.13-.77,4.34,2.2-.04,3.67,1.56,3.61,4.21.18,2.52-.96,4.9-.81,7.4.72,7.03,5.14,7.76,10.27,6.03-.3-.41-.62-.88-.97-1.41Zm-32.06-12.3v4.03c3.49-1.2,6.44-3.54,8.85-6.36-4.81.42-7.49,1.51-8.85,2.33Z"/>
    <path class="cls-2" d="m93.51,9.33v2.47c1.6.28,2.48.55,3.19,2.04l9.86,20.89c1.18-1.21,2.07-2.6,2.15-4.17.05-2.38-2.63-3.67-4.03-5.42-2.33-2.65-1.71-5.73.9-7.85,1.54-1.27,2.1-3.35,2.43-5.31.13-.93.81-2.14,1.88-2.2,1.94-.28,2.9.73,3.2,2.12.34-.05.73-.08,1.16-.1v-2.47h-20.74Zm27.87,17.67h-.13l-2.38,6.14-7.87-16.72c-.33-.71-.55-1.59-.55-2.2,0-1.18.3-1.85,1.78-2.18-.12-.62-.44-1.14-1.11-1.32-.58-.12-1.45-.12-1.79.43-.33.54-.37,1.43-.49,2.27-.2,1.71-.88,3.58-2.12,4.95-4.05,4.38.84,5.96,3.02,9.33,1.83,3.22.01,6.22-2.54,8.38l5.67,12.02h3.52l8.77-21.35c-1.35.17-2.61.25-3.78.25Zm.79-17.67v2.47c3.24.17,3.79.83,3.79,2.42,0,.61-.28,1.38-.61,2.2l-3.71,9.58c1.21,0,2.53-.1,3.96-.3h0s4.87-11.86,4.87-11.86c.6-1.49,1.65-1.76,3.24-2.04v-2.47h-11.54Z"/>
    <path class="cls-6" d="m151.04,22.75c-5.55-1.54-7.86-2.97-7.86-6.38,0-3.03,2.25-4.79,5.39-4.79,5.11,0,8.03,3.58,9.4,8.91h2.7v-8.41c-2.64-1.98-6.88-3.3-12.1-3.3-8.31,0-14.52,4.84-14.52,12.92,0,.62.03,1.21.11,1.78,4.5-1.94,9.76-1.09,14.22.59,5.36,2.11,9.93,5.64,14.72,8.76-1.12-5.89-5.76-8.32-12.06-10.08Zm9.52,11.68c-7.13-4.98-14.69-11.54-23.97-10.32-.76.11-1.53.28-2.25.53,1.04,4.97,4.91,7.94,11.37,9.71,5.88,1.6,8.19,3.14,8.19,6.44s-2.47,4.84-6.1,4.84c-5.56,0-9.3-4.51-10.67-10.45h-3.25l.66,9.62c2.7,2.04,7.65,3.68,13.26,3.68,8.42,0,15.29-3.7,15.55-12.2-.96-.62-1.89-1.24-2.79-1.85Z"/>
    <path class="cls-1" d="m186.35,9.33h-20.02v2.47c3.58.39,3.8.88,3.8,3.69v21.39c4.17,2.1,7.97,2.85,12.04,2.72v-6.35h3.58c11.21,0,16.55-4.4,16.55-12.21,0-6.76-5.06-11.71-15.95-11.71Zm-3.46,20.79h-.72V12.08h.72c4.51,0,7.7,3.19,7.7,8.96s-2.75,9.08-7.7,9.08Zm-.67,12.45c-4.2.37-8.27-.74-12.09-2.5v1.71c0,2.8-.22,3.3-3.8,3.68v2.47h22.17v-2.47c-4.3-.2-5.98-.75-6.28-2.89Z"/>
  </g>
  <text class="cls-4" transform="translate(14.62 60.99)"><tspan x="0" y="0">Ohio River Vision and Strategic Plan </tspan></text>
</svg>